HIERARCHY
ROOT Hips
{
    OFFSET   0.000000   0.000000   0.000000
    CHANNELS 6 Xposition Yposition Zposition Zrotation Xrotation Yrotation
    JOINT Chest
    {
        OFFSET   0.000000   8.007240   0.000000
        CHANNELS 3 Zrotation Xrotation Yrotation
        JOINT Chest2
        {
            OFFSET   0.000000  22.077100   0.000000
            CHANNELS 3 Zrotation Xrotation Yrotation
            JOINT Neck
            {
                OFFSET   0.000000  23.254800   0.000000
                CHANNELS 3 Zrotation Xrotation Yrotation
                JOINT Head
                {
                    OFFSET   0.000000  14.370000   1.956600
                    CHANNELS 3 Zrotation Xrotation Yrotation
                    End Site
                    {
                        OFFSET   0.000000  19.566000   0.000000
                    }
                }
            }
            JOINT LeftCollar
            {
                OFFSET   3.911900  19.017000  -0.467064
                CHANNELS 3 Zrotation Xrotation Yrotation
                JOINT LeftShoulder
                {
                    OFFSET  10.383700   0.000000   0.000000
                    CHANNELS 3 Zrotation Xrotation Yrotation
                    JOINT LeftElbow
                    {
                        OFFSET  26.662100   0.001476   0.000517
                        CHANNELS 3 Zrotation Xrotation Yrotation
                        JOINT LeftWrist
                        {
                            OFFSET  28.869000  -0.000025  -0.000106
                            CHANNELS 3 Zrotation Xrotation Yrotation
                            JOINT LeftFinger0
                            {
                                OFFSET   2.044660  -2.323460   3.252850
                                CHANNELS 3 Zrotation Xrotation Yrotation
                                JOINT LeftFinger01
                                {
                                    OFFSET   3.088130   0.000000   0.000000
                                    CHANNELS 3 Zrotation Xrotation Yrotation
                                    JOINT LeftFinger02
                                    {
                                        OFFSET   2.639460   0.000000   0.000000
                                        CHANNELS 3 Zrotation Xrotation Yrotation
                                        End Site
                                        {
                                            OFFSET   2.582190   0.000000   0.000000
                                        }
                                    }
                                }
                            }
                            JOINT LeftFinger1
                            {
                                OFFSET   8.364480   0.000000   3.252850
                                CHANNELS 3 Zrotation Xrotation Yrotation
                                JOINT LeftFinger11
                                {
                                    OFFSET   4.646930   0.000000   0.000000
                                    CHANNELS 3 Zrotation Xrotation Yrotation
                                    JOINT LeftFinger12
                                    {
                                        OFFSET   2.323460   0.000000   0.000000
                                        CHANNELS 3 Zrotation Xrotation Yrotation
                                        End Site
                                        {
                                            OFFSET   2.273050   0.000000   0.000000
                                        }
                                    }
                                }
                            }
                            JOINT LeftFinger2
                            {
                                OFFSET   8.364490   0.000015   1.078090
                                CHANNELS 3 Zrotation Xrotation Yrotation
                                JOINT LeftFinger21
                                {
                                    OFFSET   5.111620   0.000000   0.000000
                                    CHANNELS 3 Zrotation Xrotation Yrotation
                                    JOINT LeftFinger22
                                    {
                                        OFFSET   2.788160   0.000016   0.000000
                                        CHANNELS 3 Zrotation Xrotation Yrotation
                                        End Site
                                        {
                                            OFFSET   2.727660   0.000000   0.000000
                                        }
                                    }
                                }
                            }
                            JOINT LeftFinger3
                            {
                                OFFSET   7.899780   0.000017  -1.078090
                                CHANNELS 3 Zrotation Xrotation Yrotation
                                JOINT LeftFinger31
                                {
                                    OFFSET   4.646930   0.000000   0.000000
                                    CHANNELS 3 Zrotation Xrotation Yrotation
                                    JOINT LeftFinger32
                                    {
                                        OFFSET   2.323470   0.000000   0.000000
                                        CHANNELS 3 Zrotation Xrotation Yrotation
                                        End Site
                                        {
                                            OFFSET   2.273050   0.000000   0.000000
                                        }
                                    }
                                }
                            }
                            JOINT LeftFinger4
                            {
                                OFFSET   7.435090   0.000000  -3.252850
                                CHANNELS 3 Zrotation Xrotation Yrotation
                                JOINT LeftFinger41
                                {
                                    OFFSET   3.717550   0.000000   0.000000
                                    CHANNELS 3 Zrotation Xrotation Yrotation
                                    JOINT LeftFinger42
                                    {
                                        OFFSET   1.858770   0.000000   0.000000
                                        CHANNELS 3 Zrotation Xrotation Yrotation
                                        End Site
                                        {
                                            OFFSET   1.818440   0.000000   0.000000
                                        }
                                    }
                                }
                            }
                        }
                    }
                }
            }
            JOINT RightCollar
            {
                OFFSET  -3.911900  19.017000  -0.467063
                CHANNELS 3 Zrotation Xrotation Yrotation
                JOINT RightShoulder
                {
                    OFFSET -10.383700   0.000019   0.000000
                    CHANNELS 3 Zrotation Xrotation Yrotation
                    JOINT RightElbow
                    {
                        OFFSET -26.662100   0.001175   0.000102
                        CHANNELS 3 Zrotation Xrotation Yrotation
                        JOINT RightWrist
                        {
                            OFFSET -28.869000   0.000016  -0.000079
                            CHANNELS 3 Zrotation Xrotation Yrotation
                            JOINT RightFinger0
                            {
                                OFFSET  -2.044660  -2.323490   3.252850
                                CHANNELS 3 Zrotation Xrotation Yrotation
                                JOINT RightFinger01
                                {
                                    OFFSET  -3.088140   0.000000   0.000000
                                    CHANNELS 3 Zrotation Xrotation Yrotation
                                    JOINT RightFinger02
                                    {
                                        OFFSET  -2.639460   0.000000   0.000000
                                        CHANNELS 3 Zrotation Xrotation Yrotation
                                        End Site
                                        {
                                            OFFSET  -2.582190   0.000000   0.000000
                                        }
                                    }
                                }
                            }
                            JOINT RightFinger1
                            {
                                OFFSET  -8.364480   0.000000   3.252850
                                CHANNELS 3 Zrotation Xrotation Yrotation
                                JOINT RightFinger11
                                {
                                    OFFSET  -4.646930   0.000000   0.000000
                                    CHANNELS 3 Zrotation Xrotation Yrotation
                                    JOINT RightFinger12
                                    {
                                        OFFSET  -2.323470   0.000000   0.000000
                                        CHANNELS 3 Zrotation Xrotation Yrotation
                                        End Site
                                        {
                                            OFFSET  -2.273050   0.000000   0.000000
                                        }
                                    }
                                }
                            }
                            JOINT RightFinger2
                            {
                                OFFSET  -8.364480   0.000000   1.078090
                                CHANNELS 3 Zrotation Xrotation Yrotation
                                JOINT RightFinger21
                                {
                                    OFFSET  -5.111620   0.000000   0.000000
                                    CHANNELS 3 Zrotation Xrotation Yrotation
                                    JOINT RightFinger22
                                    {
                                        OFFSET  -2.788160   0.000000   0.000000
                                        CHANNELS 3 Zrotation Xrotation Yrotation
                                        End Site
                                        {
                                            OFFSET  -2.727660   0.000000   0.000000
                                        }
                                    }
                                }
                            }
                            JOINT RightFinger3
                            {
                                OFFSET  -7.899780   0.000000  -1.078090
                                CHANNELS 3 Zrotation Xrotation Yrotation
                                JOINT RightFinger31
                                {
                                    OFFSET  -4.646930   0.000000   0.000000
                                    CHANNELS 3 Zrotation Xrotation Yrotation
                                    JOINT RightFinger32
                                    {
                                        OFFSET  -2.323470   0.000000   0.000000
                                        CHANNELS 3 Zrotation Xrotation Yrotation
                                        End Site
                                        {
                                            OFFSET  -2.273050   0.000000   0.000000
                                        }
                                    }
                                }
                            }
                            JOINT RightFinger4
                            {
                                OFFSET  -7.435090   0.000000  -3.252850
                                CHANNELS 3 Zrotation Xrotation Yrotation
                                JOINT RightFinger41
                                {
                                    OFFSET  -3.717550   0.000000   0.000000
                                    CHANNELS 3 Zrotation Xrotation Yrotation
                                    JOINT RightFinger42
                                    {
                                        OFFSET  -1.858770   0.000000   0.000000
                                        CHANNELS 3 Zrotation Xrotation Yrotation
                                        End Site
                                        {
                                            OFFSET  -1.818440   0.000000   0.000000
                                        }
                                    }
                                }
                            }
                        }
                    }
                }
            }
        }
    }
    JOINT LeftHip
    {
        OFFSET   9.783040   0.000000   0.000000
        CHANNELS 3 Zrotation Xrotation Yrotation
        JOINT LeftKnee
        {
            OFFSET   0.000032 -41.789100  -0.002222
            CHANNELS 3 Zrotation Xrotation Yrotation
            JOINT LeftAnkle
            {
                OFFSET   0.000087 -41.133200  -0.000135
                CHANNELS 3 Zrotation Xrotation Yrotation
                JOINT LeftToe
                {
                    OFFSET   0.000000  -6.358960  14.674500
                    CHANNELS 3 Zrotation Xrotation Yrotation
                    End Site
                    {
                        OFFSET   0.000000   0.000000   3.913200
                    }
                }
            }
        }
    }
    JOINT RightHip
    {
        OFFSET  -9.783040   0.000000   0.000000
        CHANNELS 3 Zrotation Xrotation Yrotation
        JOINT RightKnee
        {
            OFFSET   0.000047 -41.789100  -0.000896
            CHANNELS 3 Zrotation Xrotation Yrotation
            JOINT RightAnkle
            {
                OFFSET  -0.000117 -41.133300  -0.000248
                CHANNELS 3 Zrotation Xrotation Yrotation
                JOINT RightToe
                {
                    OFFSET   0.000000  -6.358970  14.674500
                    CHANNELS 3 Zrotation Xrotation Yrotation
                    End Site
                    {
                        OFFSET   0.000000   0.000000   3.913200
                    }
                }
            }
        }
    }
}
MOTION
Frames: 5
Frame Time:   0.016667
 -0.000188  89.528700   2.663180  -3.490540  -4.276620  -3.253280   1.128890   4.684110   1.029650   2.183860   9.387010   1.976150   1.041490  -1.364400   0.025098   1.713770  -2.763960   3.045260  -4.463550   2.472990  -4.480200 -68.649900  22.067800 -11.622600  -3.320440  -6.776680  -9.943700   8.609660  -4.871350  14.774000  43.470600  30.402300 -66.995500 -20.276500  -0.005886   0.011729  -5.138220  -0.002931   0.002338 -35.799600   6.708350  -9.197070 -29.748400  -0.001550  -0.002232 -20.823900   0.005007  -0.001823 -30.462500   2.042710  -3.468480 -45.781800  -0.001857  -0.000807 -30.490700   0.010469  -0.000919 -29.499900  -4.610390   8.084460 -44.749000   0.008043   0.000702 -29.802800   0.001902   0.000360 -39.406900  -5.934100   7.172430 -59.665700  -0.001807   0.000492 -39.737400   0.002236  -0.001819   9.787260  -1.765380   9.950250  65.754400  17.002600  -2.295040   1.479370  -1.719100   8.021080  -9.913290 -17.017200   4.457820 -41.161900  32.873300  65.740400  27.500700   0.003325  -0.006625   8.750340   0.009061  -0.003505  28.591400   6.555720  11.831100  23.949300  -0.002576  -0.007050  16.764500  -0.003125  -0.004213  27.203700   5.115820   9.844270  29.899800  -0.001225  -0.003361  19.913300  -0.001211  -0.012553  27.723600   4.583270   8.645780  32.465000  -0.008981  -0.003781  21.621700  -0.008814  -0.001875  34.391300   0.385030   0.545138  51.589700  -0.000642  -0.010699  34.358700  -0.013564  -0.001909   3.611800   9.133580   2.153610   0.792921   1.029040   0.770837  -1.923650  -4.934520  13.627000   0.000000   0.000000   0.000000   2.615440   5.093990  -6.022640   1.190780   3.631360   1.168870  -4.928160  -3.312210   4.417080   0.000000   0.000000  -0.000000
 -0.000879  89.528600   2.645820  -3.492160  -4.299830  -3.260180   1.128400   4.700630   1.038070   2.181950   9.420190   1.992840   1.048950  -1.368780   0.025201   1.726190  -2.772870   3.027350  -4.468420   2.464030  -4.483320 -68.655600  22.068900 -11.607800  -3.322730  -6.772530  -9.957810   8.618480  -4.884840  14.750400  43.476300  30.408900 -66.995600 -20.276800  -0.006115   0.011794  -5.138380  -0.003054   0.002354 -35.803400   6.708350  -9.197070 -29.748400  -0.001556  -0.002250 -20.823900   0.005002  -0.001839 -30.457200   2.048490  -3.478950 -45.776600  -0.001872  -0.000821 -30.487200   0.010463  -0.000928 -29.505600  -4.590710   8.048950 -44.749000   0.008038   0.000709 -29.802800   0.001893   0.000361 -39.413600  -5.909130   7.140360 -59.675600  -0.001821   0.000479 -39.744000   0.002215  -0.001796   9.778360  -1.788090   9.949870  65.738400  17.068500  -2.275030   1.479790  -1.706500   8.017460  -9.908680 -17.036600   4.458280 -41.151100  32.881600  65.758200  27.520000   0.003299  -0.006621   8.759980   0.009055  -0.003506  28.607500   6.550440  11.814100  23.961200  -0.002572  -0.007042  16.772800  -0.003124  -0.004207  27.206700   5.108260   9.827900  29.919400  -0.001218  -0.003349  19.926400  -0.001206  -0.012550  27.726800   4.573450   8.626200  32.480700  -0.008975  -0.003774  21.632100  -0.008807  -0.001855  34.397000   0.384842   0.545970  51.598300  -0.000635  -0.010706  34.364400  -0.013570  -0.001902   3.616810   9.158240   2.152170   0.792962   1.005680   0.771162  -1.925170  -4.914160  13.627200   0.000000   0.000000   0.000000   2.616610   5.101100  -6.026470   1.193070   3.639060   1.174300  -4.928120  -3.312090   4.417090  -0.000000   0.000000   0.000000
 -0.002452  89.528600   2.617250  -3.494770  -4.340240  -3.267160   1.127890   4.729800   1.052530   2.179300   9.478740   2.021490   1.060330  -1.377090   0.025492   1.744790  -2.789730   2.997580  -4.477880   2.445700  -4.491530 -68.663500  22.070400 -11.587100  -3.327750  -6.764300  -9.986420   8.634210  -4.905640  14.705100  43.491100  30.422800 -66.997900 -20.279000  -0.006498   0.011932  -5.139500  -0.003258   0.002395 -35.809500   6.708350  -9.197070 -29.748300  -0.001571  -0.002294 -20.823800   0.004989  -0.001871 -30.449300   2.054260  -3.489420 -45.767900  -0.001909  -0.000854 -30.481400   0.010449  -0.000949 -29.513400  -4.563340   8.000380 -44.749000   0.008031   0.000724 -29.802800   0.001871   0.000363 -39.422600  -5.874730   7.096410 -59.685600  -0.001851   0.000447 -39.750600   0.002160  -0.001735   9.760730  -1.831510   9.946610  65.713600  17.186000  -2.242050   1.485380  -1.685070   8.009530  -9.891830 -17.056000   4.458740 -41.143700  32.899400  65.797300  27.539200   0.003240  -0.006607   8.769630   0.009048  -0.003507  28.623500   6.545160  11.797200  23.973100  -0.002565  -0.007019  16.781100  -0.003116  -0.004192  27.209700   5.100700   9.811530  29.939100  -0.001204  -0.003321  19.939500  -0.001192  -0.012542  27.730100   4.563630   8.606610  32.496400  -0.008959  -0.003753  21.642600  -0.008792  -0.001806  34.402700   0.384579   0.548438  51.606900  -0.000622  -0.010725  34.370200  -0.013590  -0.001884   3.624800   9.198380   2.150130   0.792996   0.970933   0.771485  -1.928600  -4.881010  13.627100  -0.000000   0.000000   0.000000   2.618700   5.114950  -6.032610   1.198360   3.652410   1.179750  -4.928140  -3.311210   4.417150  -0.000000   0.000000   0.000000
 -0.004524  89.528500   2.595000  -3.497010  -4.375720  -3.263090   1.127940   4.756190   1.065440   2.177940   9.531740   2.047020   1.068540  -1.385540   0.026005   1.757050  -2.806720   2.972680  -4.488250   2.424120  -4.506260 -68.666600  22.070900 -11.578600  -3.335230  -6.752360 -10.020200   8.649750  -4.918700  14.653500  43.500300  30.442300 -67.005200 -20.291200  -0.006887   0.012120  -5.145610  -0.003454   0.002460 -35.816600   6.702990  -9.187580 -29.748800  -0.001591  -0.002359 -20.824200   0.004973  -0.001911 -30.444700   2.051310  -3.484880 -45.761000  -0.001966  -0.000908 -30.476800   0.010428  -0.000981 -29.510500  -4.554040   7.985710 -44.742000   0.008025   0.000741 -29.798100   0.001835   0.000368 -39.425300  -5.863820   7.082900 -59.685300  -0.001893   0.000399 -39.750400   0.002069  -0.001641   9.741580  -1.878530   9.938040  65.700100  17.289900  -2.222040   1.498980  -1.671210   8.003240  -9.857080 -17.023100   4.463910 -41.162500  32.921100  65.849600  27.518600   0.003162  -0.006579   8.759220   0.009051  -0.003499  28.617600   6.558200  11.821900  23.971500  -0.002554  -0.006978  16.779900  -0.003101  -0.004171  27.205500   5.112940   9.835460  29.932000  -0.001185  -0.003283  19.934700  -0.001171  -0.012531  27.726600   4.575380   8.629770  32.486800  -0.008934  -0.003715  21.636200  -0.008770  -0.001735  34.392900   0.384464   0.552677  51.592200  -0.000606  -0.010755  34.360400  -0.013622  -0.001858   3.629730   9.230070   2.149350   0.793011   0.948706   0.771379  -1.934220  -4.853940  13.621800  -0.000000   0.000000   0.000000   2.620330   5.129400  -6.035030   1.206770   3.664840   1.175780  -4.931670  -3.308140   4.417750   0.000000   0.000000  -0.000000
 -0.007258  89.528400   2.573430  -3.499650  -4.414200  -3.253260   1.128670   4.785250   1.078040   2.177910   9.590070   2.071840   1.072840  -1.395870   0.026604   1.763270  -2.827540   2.950340  -4.500250   2.398030  -4.520960 -68.667500  22.071100 -11.575900  -3.342360  -6.744070 -10.059800   8.664920  -4.929720  14.600900  43.502500  30.461100 -67.012600 -20.306300  -0.007121   0.012310  -5.153140  -0.003570   0.002532 -35.822800   6.693490  -9.172720 -29.749300  -0.001615  -0.002432 -20.824500   0.004953  -0.001957 -30.440000   2.047010  -3.478450 -45.753200  -0.002027  -0.000969 -30.471600   0.010401  -0.001017 -29.499700  -4.548980   7.979980 -44.725700   0.008019   0.000760 -29.787300   0.001790   0.000372 -39.426200  -5.858780   7.077340 -59.683200  -0.001939   0.000348 -39.749000   0.001957  -0.001524   9.717290  -1.931120   9.925940  65.684400  17.415500  -2.191320   1.520660  -1.648470   7.986630  -9.813610 -16.965500   4.477340 -41.188800  32.949600  65.910900  27.489900   0.003064  -0.006542   8.744930   0.009058  -0.003483  28.609900   6.571170  11.849200  23.966600  -0.002541  -0.006926  16.776600  -0.003080  -0.004143  27.201000   5.125160   9.860870  29.920000  -0.001163  -0.003235  19.926700  -0.001146  -0.012516  27.722900   4.587130   8.652920  32.469600  -0.008903  -0.003667  21.624700  -0.008743  -0.001649  34.374800   0.384425   0.558214  51.565000  -0.000585  -0.010793  34.342300  -0.013664  -0.001824   3.635630   9.257460   2.148880   0.792867   0.937874   0.770672  -1.940150  -4.832510  13.611100  -0.000000   0.000000  -0.000000   2.622590   5.147760  -6.041100   1.214590   3.676520   1.171810  -4.938430  -3.303020   4.418530   0.000000   0.000000  -0.000000
